<svg width="30" height="30" viewBox="0 0 30 30" fill="none" xmlns="http://www.w3.org/2000/svg">
<path d="M4.5 15.3752C4.49968 15.206 4.53692 15.0389 4.60903 14.8858C4.68114 14.7328 4.78633 14.5977 4.917 14.4902L9.336 10.0802C9.54694 9.86953 9.83287 9.75119 10.131 9.75119C10.4291 9.75119 10.7151 9.86953 10.926 10.0802C11.0302 10.1844 11.1129 10.3081 11.1693 10.4443C11.2257 10.5804 11.2548 10.7263 11.2548 10.8737C11.2548 11.0211 11.2257 11.167 11.1693 11.3032C11.1129 11.4393 11.0302 11.563 10.926 11.6672L8.349 14.2502L24.375 14.2502C24.6734 14.2502 24.9595 14.3687 25.1705 14.5797C25.3815 14.7907 25.5 15.0768 25.5 15.3752C25.5 15.6736 25.3815 15.9597 25.1705 16.1707C24.9595 16.3817 24.6734 16.5002 24.375 16.5002L8.334 16.5002L10.9335 19.0832C11.0379 19.1874 11.1208 19.3112 11.1774 19.4475C11.2339 19.5838 11.263 19.7299 11.263 19.8775C11.263 20.025 11.2339 20.1711 11.1774 20.3074C11.1208 20.4437 11.0379 20.5675 10.9335 20.6717C10.829 20.7762 10.705 20.8592 10.5684 20.9158C10.4319 20.9723 10.2855 21.0015 10.1378 21.0015C9.98995 21.0015 9.8436 20.9723 9.70706 20.9158C9.57053 20.8592 9.44647 20.7762 9.342 20.6717L4.83 16.1657C4.72469 16.0629 4.64119 15.9399 4.58449 15.8041C4.52779 15.6682 4.49906 15.5224 4.5 15.3752V15.3752Z" fill="#002B4E"/>
</svg>
