<svg width="30" height="30" viewBox="0 0 30 30" fill="none" xmlns="http://www.w3.org/2000/svg">
<path d="M25.5 15.3752C25.5003 15.206 25.4631 15.0389 25.391 14.8858C25.3189 14.7328 25.2137 14.5977 25.083 14.4902L20.664 10.0802C20.4531 9.86953 20.1671 9.75119 19.869 9.75119C19.5709 9.75119 19.2849 9.86953 19.074 10.0802C18.9698 10.1844 18.8871 10.3081 18.8307 10.4443C18.7743 10.5804 18.7452 10.7263 18.7452 10.8737C18.7452 11.0211 18.7743 11.167 18.8307 11.3032C18.8871 11.4393 18.9698 11.563 19.074 11.6672L21.651 14.2502L5.625 14.2502C5.32663 14.2502 5.04048 14.3687 4.8295 14.5797C4.61853 14.7907 4.5 15.0768 4.5 15.3752C4.5 15.6736 4.61853 15.9597 4.8295 16.1707C5.04048 16.3817 5.32663 16.5002 5.625 16.5002L21.666 16.5002L19.0665 19.0832C18.9621 19.1874 18.8792 19.3112 18.8226 19.4475C18.7661 19.5838 18.737 19.7299 18.737 19.8775C18.737 20.025 18.7661 20.1711 18.8226 20.3074C18.8792 20.4437 18.9621 20.5675 19.0665 20.6717C19.171 20.7762 19.295 20.8592 19.4316 20.9158C19.5681 20.9723 19.7145 21.0015 19.8622 21.0015C20.01 21.0015 20.1564 20.9723 20.2929 20.9158C20.4295 20.8592 20.5535 20.7762 20.658 20.6717L25.17 16.1657C25.2753 16.0629 25.3588 15.9399 25.4155 15.8041C25.4722 15.6682 25.5009 15.5224 25.5 15.3752Z" fill="#002B4E"/>
</svg>
