<svg width="46" height="46" viewBox="0 0 46 46" fill="none" xmlns="http://www.w3.org/2000/svg">
<rect width="46" height="46" rx="10" fill="#185CFF"/>
<path d="M28.6742 33.0072L28.6742 33.0073C29.2518 33.0198 29.8261 32.9169 30.3634 32.7045C30.9007 32.4921 31.3902 32.1746 31.8031 31.7705C32.2161 31.3664 32.5441 30.884 32.7681 30.3514C32.9921 29.8188 33.1075 29.2469 33.1075 28.6691C33.1075 28.0914 32.9921 27.5195 32.7681 26.9869C32.5441 26.4543 32.2161 25.9718 31.8031 25.5678C31.3902 25.1637 30.9007 24.8462 30.3634 24.6338C29.8261 24.4214 29.2518 24.3185 28.6742 24.331L28.6687 24.3311V24.3311C27.7493 24.3311 26.8389 24.1499 25.9896 23.798C25.1402 23.4461 24.3685 22.9303 23.7184 22.2801C23.0684 21.6299 22.5529 20.858 22.2013 20.0085C21.8496 19.159 21.6688 18.2486 21.6691 17.3293L28.6742 33.0072ZM28.6742 33.0072L28.6691 33.0072M28.6742 33.0072L28.6691 33.0072M28.6691 33.0072C27.5189 33.0056 26.4163 32.5478 25.6032 31.7343C24.7901 30.9208 24.3328 29.818 24.3317 28.6678L24.3315 28.4181M28.6691 33.0072L24.3315 28.4181M24.3315 28.4181H24.0817M24.3315 28.4181H24.0817M24.0817 28.4181H21.9191H21.669M24.0817 28.4181H21.669M21.669 28.4181L21.6691 28.6682M21.669 28.4181L21.6691 28.6682M21.6691 28.6682C21.6695 29.5265 21.4154 30.3656 20.9388 31.0794C20.4623 31.7933 19.7847 32.3498 18.9919 32.6785C18.199 33.0072 17.3265 33.0934 16.4847 32.9262C15.6428 32.7591 14.8695 32.3459 14.2624 31.7392C13.6554 31.1324 13.2419 30.3593 13.0743 29.5175C12.9067 28.6757 12.9925 27.8032 13.3209 27.0102C13.6493 26.2172 14.2054 25.5394 14.919 25.0625C15.6326 24.5856 16.4716 24.3311 17.3299 24.3311H17.5799M21.6691 28.6682L17.5799 24.3311M17.5799 24.3311V24.0811M17.5799 24.3311V24.0811M17.5799 24.0811V21.9184V21.6684M17.5799 24.0811V21.6684M17.5799 21.6684H17.3299M17.5799 21.6684H17.3299M17.3299 21.6684C16.4717 21.6684 15.6328 21.4139 14.9192 20.9371M17.3299 21.6684L14.9192 20.9371M14.9192 20.9371C14.2057 20.4603 13.6495 19.7827 13.3211 18.9898M14.9192 20.9371L13.3211 18.9898M13.3211 18.9898C12.9927 18.1969 12.9067 17.3244 13.0742 16.4827M13.3211 18.9898L13.0742 16.4827M13.0742 16.4827C13.2416 15.641 13.6549 14.8679 14.2617 14.261M13.0742 16.4827L14.2617 14.261M14.2617 14.261C14.8685 13.6542 15.6417 13.2409 16.4834 13.0735M14.2617 14.261L16.4834 13.0735M16.4834 13.0735C17.3251 12.9061 18.1976 12.992 18.9905 13.3204M16.4834 13.0735L18.9905 13.3204M18.9905 13.3204C19.7833 13.6488 20.461 14.205 20.9378 14.9186M18.9905 13.3204L20.9378 14.9186M20.9378 14.9186C21.4146 15.6321 21.6691 16.471 21.6691 17.3292L20.9378 14.9186ZM32.7694 23.002C33.071 22.7846 33.3553 22.5439 33.6198 22.282L33.6222 22.2796C34.916 20.9626 35.6373 19.1879 35.6291 17.3417C35.6209 15.4955 34.8838 13.7273 33.5784 12.4218C32.2729 11.1163 30.5047 10.3793 28.6585 10.3711C26.8123 10.3629 25.0376 11.0841 23.7206 12.3779L23.7205 12.3779L23.7181 12.3804C23.4562 12.6448 23.2156 12.9292 22.9982 13.2308C22.4611 12.4868 21.782 11.8547 20.9989 11.3716C20.1098 10.8232 19.1091 10.4809 18.0704 10.3698C17.0317 10.2587 15.9813 10.3816 14.9963 10.7296C14.0113 11.0776 13.1167 11.6417 12.3783 12.3807C11.6399 13.1196 11.0763 14.0146 10.729 14.9998C10.3817 15.985 10.2595 17.0355 10.3713 18.0742C10.4832 19.1129 10.8262 20.1133 11.3752 21.002C11.8587 21.7846 12.4912 22.4631 13.2354 22.9997C12.4908 23.5363 11.8581 24.215 11.3744 24.9978C10.8251 25.8868 10.482 26.8875 10.3702 27.9265C10.2584 28.9655 10.3809 30.0163 10.7285 31.0018C11.0761 31.9872 11.6401 32.8823 12.379 33.6212C13.1179 34.3601 14.0129 34.9241 14.9984 35.2717C15.9838 35.6193 17.0347 35.7417 18.0736 35.6299C19.1126 35.5182 20.1133 35.1751 21.0023 34.6258C21.7852 34.1421 22.4638 33.5093 23.0005 32.7648C23.537 33.509 24.2155 34.1414 24.9981 34.6249C25.8869 35.174 26.8873 35.517 27.926 35.6288C28.9646 35.7407 30.0151 35.6184 31.0004 35.2711C31.9856 34.9238 32.8805 34.3603 33.6195 33.6219C34.3584 32.8834 34.9226 31.9889 35.2706 31.0039C35.6186 30.0189 35.7415 28.9685 35.6304 27.9297C35.5193 26.891 35.177 25.8904 34.6285 25.0012C34.1455 24.2181 33.5134 23.5391 32.7694 23.002ZM25.6012 14.2623L25.6016 14.262C26.3112 13.5519 27.2452 13.1098 28.2443 13.0111C29.2433 12.9123 30.2457 13.1631 31.0806 13.7207C31.9155 14.2782 32.5313 15.108 32.8229 16.0687C33.1146 17.0293 33.0641 18.0614 32.6801 18.989C32.296 19.9166 31.6022 20.6823 30.7169 21.1557C29.8316 21.6291 28.8095 21.7808 27.8248 21.585C26.8401 21.3893 25.9538 20.8581 25.3169 20.0821C24.6799 19.3061 24.3318 18.3332 24.3317 17.3293L24.3317 17.3288C24.3306 16.7592 24.4422 16.195 24.6601 15.6687C24.878 15.1424 25.1978 14.6645 25.6012 14.2623Z" fill="white" stroke="white" stroke-width="0.5"/>
</svg>
