<svg width="665" height="387" viewBox="0 0 665 387" fill="none" xmlns="http://www.w3.org/2000/svg">
<path d="M54.0787 385.881C35.1156 385.898 18.1822 374.408 11.753 357.163C-2.03368 320.037 -14.18 251.264 39.7989 176.876C99.4849 94.6251 218.885 9.59436 302.869 0.883372C434.437 -12.7565 471.213 135.532 530.247 170.039C581.252 199.853 655.116 244.561 664.771 338.001C667.258 361.919 649.216 383.258 624.475 385.662C622.986 385.806 621.493 385.879 619.995 385.879L54.0787 385.881Z" fill="#F3F5FD"/>
<path d="M60.6589 383.381C49.3703 379.883 38.418 375.311 28.4386 362.516C26.3908 359.895 24.4666 356.536 25.5888 353.397C26.4335 351.036 28.8769 349.522 31.3597 349.137C32.2844 349.002 33.2217 348.976 34.1525 349.06C34.157 349.06 34.1616 349.063 34.1633 349.06C35.5934 349.206 37.0071 349.483 38.3867 349.887L38.7811 350.001C45.3674 351.873 51.6415 354.707 57.4005 358.411C57.9224 358.743 58.5414 358.889 59.1569 358.825C59.7724 358.762 60.3482 358.491 60.7907 358.059C61.2332 357.626 61.5163 357.057 61.5941 356.443C61.6719 355.829 61.5398 355.207 61.2192 354.677C60.6317 353.718 59.948 352.82 59.1787 351.999C58.0443 350.812 56.8013 349.734 55.466 348.779C53.6918 347.485 51.7978 346.328 49.9448 345.147C43.0565 340.76 36.5305 335.828 30.4295 330.399C26.075 326.52 21.8163 322.215 19.7468 316.762C18.7955 314.254 18.3629 311.363 19.4971 308.932C21.3689 304.943 26.6712 303.824 31.0069 304.653C38.6044 306.108 44.6739 311.677 50.056 317.228C54.5193 321.84 59.5201 326.947 65.9327 327.231C67.0259 327.333 68.1251 327.112 69.0943 326.596C70.9233 325.488 71.3935 322.921 70.7415 320.883C70.0894 318.845 68.5813 317.217 67.1245 315.653C58.6618 306.572 50.3319 297.125 44.8357 285.997C39.3396 274.869 36.9048 261.734 40.7241 249.919C41.844 246.466 43.5266 243.105 46.1512 240.596C48.7759 238.087 52.4567 236.514 56.0599 236.994C60.969 237.641 64.6663 241.785 67.1536 246.061C75.703 260.739 75.1803 278.724 77.5884 295.537C78.2626 300.244 79.2412 305.071 82.0454 308.946C82.304 309.319 82.6394 309.632 83.0292 309.864C85.3364 311.2 87.407 308.505 88.2728 306.219C91.6926 297.175 92.5475 286.832 98.6705 279.346C101.007 276.496 104.313 274.115 107.997 274.138C112.497 274.169 116.35 277.927 117.663 282.232C118.976 286.536 118.19 291.212 116.784 295.486C114.172 303.411 109.492 310.532 103.976 316.79C101.069 320.096 97.7803 323.433 96.9088 327.743C96.6416 329.208 96.7534 330.718 97.2335 332.127C97.7136 333.537 98.5461 334.801 99.652 335.799C100.169 336.249 100.771 336.59 101.423 336.803C102.074 337.016 102.762 337.096 103.445 337.039C104.922 336.903 106.258 336.15 107.545 335.418C108.086 335.11 108.628 334.797 109.174 334.491C111.324 333.267 113.475 332.041 115.627 330.814C121.096 327.694 127.699 324.506 133.395 327.193C136.302 328.567 138.207 331.267 139.102 334.367C139.904 337.179 139.904 340.16 139.102 342.973C137.405 348.822 126.711 365.099 122.3 369.296C117.149 374.202 99.2867 395.351 60.6589 383.381Z" fill="#0C8234"/>
<path d="M521.132 4.36914H167.138V260.721H521.132V4.36914Z" fill="#DEE8F5"/>
<path d="M521.132 4.36914H167.138V25.486H521.132V4.36914Z" fill="#C1D8ED"/>
<path d="M509.276 20.2261C512.202 20.2261 514.574 17.854 514.574 14.9279C514.574 12.0018 512.202 9.62976 509.276 9.62976C506.349 9.62976 503.977 12.0018 503.977 14.9279C503.977 17.854 506.349 20.2261 509.276 20.2261Z" fill="white"/>
<path d="M241.5 56.8557H194.637V103.717H241.5V56.8557Z" fill="white"/>
<path d="M304.533 56.8557H257.67V103.717H304.533V56.8557Z" fill="white"/>
<path d="M367.566 56.8557H320.703V103.717H367.566V56.8557Z" fill="white"/>
<path d="M430.6 56.8557H383.737V103.717H430.6V56.8557Z" fill="white"/>
<path d="M241.5 119.314H194.637V166.176H241.5V119.314Z" fill="white"/>
<path d="M304.533 119.314H257.67V166.176H304.533V119.314Z" fill="#FFC239"/>
<path d="M367.566 119.314H320.703V166.176H367.566V119.314Z" fill="white"/>
<path d="M430.6 119.314H383.737V166.176H430.6V119.314Z" fill="white"/>
<path d="M241.5 181.773H194.637V228.634H241.5V181.773Z" fill="white"/>
<path d="M304.533 181.773H257.67V228.634H304.533V181.773Z" fill="white"/>
<path d="M367.566 181.773H320.703V228.634H367.566V181.773Z" fill="white"/>
<path d="M430.6 181.773H383.737V228.634H430.6V181.773Z" fill="white"/>
<path d="M493.634 56.8557H446.771V103.717H493.634V56.8557Z" fill="white"/>
<path d="M493.634 119.314H446.771V166.176H493.634V119.314Z" fill="white"/>
<path d="M493.634 181.773H446.771V228.634H493.634V181.773Z" fill="white"/>
<path d="M229.86 380.835L217.974 379.422C218.509 374.923 219.114 369.52 219.154 368.634C219.154 368.691 219.154 368.737 219.154 368.773H231.124C231.121 369.131 231.121 370.223 229.86 380.835Z" fill="#E98862"/>
<path d="M182.168 382.266L170.198 382.227C170.198 382.227 170.238 369.867 170.238 368.773H182.208C182.208 369.87 182.168 382.266 182.168 382.266Z" fill="#E98862"/>
<path d="M234.275 376.697C233.285 351.614 233.225 325.27 232.914 300.121C228.798 272.996 226.634 243.245 221.553 216.312L221.401 216.357L220.956 213.319L177.595 210.643L175.908 238.969H176.07C173.887 276.916 169.667 337.919 167.114 376.376L188.128 378.151C191.881 340.33 197.431 280.078 200.822 242.802C204.544 261.796 208.623 283.186 211.927 302.405C212.651 326.957 213.256 352.543 213.19 377.055L234.275 376.697Z" fill="#262626"/>
<path d="M196.718 386.895C197.026 386.894 197.33 386.832 197.613 386.712C197.897 386.593 198.154 386.42 198.37 386.201C198.587 385.983 198.758 385.724 198.874 385.439C198.99 385.155 199.05 384.85 199.048 384.542C199.048 384.485 199.048 384.428 199.041 384.371C199.007 383.927 198.846 383.501 198.577 383.145C198.309 382.788 197.944 382.516 197.526 382.36L183.595 377.695C183.325 377.605 183.039 377.575 182.756 377.607C182.474 377.638 182.202 377.73 181.958 377.876C180.043 379.205 177.752 379.885 175.422 379.814C173.607 379.685 171.865 379.049 170.395 377.978C170.265 377.872 170.109 377.805 169.943 377.784C169.777 377.764 169.608 377.791 169.457 377.863C169.306 377.935 169.179 378.048 169.09 378.189C169 378.331 168.953 378.495 168.954 378.662V385.474C168.954 385.878 169.115 386.267 169.401 386.553C169.687 386.839 170.075 387 170.48 387H170.486L196.718 386.895Z" fill="#C1D8ED"/>
<path d="M244.443 386.895C244.75 386.894 245.055 386.832 245.338 386.712C245.622 386.593 245.879 386.42 246.095 386.201C246.312 385.983 246.483 385.724 246.599 385.439C246.715 385.155 246.774 384.85 246.773 384.542C246.773 384.485 246.773 384.428 246.766 384.371C246.732 383.926 246.571 383.501 246.302 383.144C246.034 382.788 245.669 382.516 245.251 382.36L231.32 377.694C231.05 377.605 230.764 377.575 230.481 377.606C230.198 377.637 229.926 377.729 229.682 377.876C227.767 379.204 225.476 379.884 223.146 379.814C221.332 379.684 219.59 379.048 218.119 377.977C217.99 377.871 217.833 377.804 217.667 377.784C217.501 377.763 217.333 377.791 217.182 377.862C217.031 377.934 216.903 378.047 216.814 378.189C216.725 378.33 216.678 378.494 216.679 378.661V385.473C216.679 385.878 216.839 386.266 217.126 386.552C217.412 386.839 217.8 386.999 218.205 386.999H218.211L244.443 386.895Z" fill="#C1D8ED"/>
<path d="M198.704 125.786L196.753 126.441C196.753 126.441 197.008 133.363 197.729 136.884C198.45 140.405 199.012 144.993 201.252 145.497C204.226 146.166 207.772 146.413 210.349 145.492C212.298 144.795 212.597 138.179 212.787 134.912C212.872 133.46 212.688 133.587 211.237 133.686C208.269 133.89 203.652 134.047 201.953 133.23C199.363 131.988 198.704 125.786 198.704 125.786Z" fill="#0F1011"/>
<path d="M191.489 151.725C191.489 151.725 195.896 149.388 194.912 137.387L204.018 135.698C204.018 135.698 202.992 146.458 207.601 149.874L191.489 151.725Z" fill="#E98862"/>
<path d="M189.745 132.734C190.376 136.374 192.362 139.823 195.575 140.998C199.387 142.394 202.211 142.489 206.607 142.489C212.606 142.489 212.408 136.232 212.577 129.928C212.748 123.601 212.709 118.254 210.338 116.048C205.607 111.645 191.249 112.989 189.559 120.352C188.686 124.161 189.145 129.268 189.745 132.734Z" fill="#E98862"/>
<path d="M186.857 128.05C187.733 133.585 188.88 135.331 190.536 137.977C191.518 139.63 192.836 141.059 194.405 142.171C195.625 142.957 207.601 142.794 209.669 142.492C212.719 142.045 213.181 133.355 212.636 133.355C211.958 133.355 211.797 133.337 211.033 133.337C209.64 133.337 209.5 125.034 209.238 121.361C209.452 121.331 209.668 121.316 209.884 121.316C216.441 121.314 185.386 118.759 186.857 128.05Z" fill="#0F1011"/>
<path d="M208.064 133.514C207.171 133.537 206.303 133.217 205.639 132.62C204.974 132.024 204.563 131.195 204.49 130.305C204.445 129.856 204.488 129.402 204.619 128.969C204.749 128.537 204.963 128.135 205.249 127.785C205.535 127.435 205.886 127.145 206.284 126.932C206.682 126.718 207.118 126.585 207.568 126.54C207.599 126.537 207.63 126.534 207.661 126.532C207.742 129.017 207.87 131.633 208.064 133.514Z" fill="#E98862"/>
<path d="M186.857 128.05C186.857 128.05 183.782 112.503 198.639 111.066C213.496 109.629 212.603 123.52 212.603 123.52L206.709 126.527C206.709 126.527 200.129 128.332 186.857 128.05Z" fill="#262626"/>
<path d="M188.975 126.242C188.939 124.891 189.441 123.58 190.371 122.599C191.3 121.617 192.581 121.045 193.933 121.007C195.284 120.969 196.595 121.469 197.578 122.397C198.561 123.325 199.135 124.606 199.175 125.957" fill="#0F1011"/>
<path d="M206.712 126.524C206.712 126.524 211.56 124.889 214.154 123.357C216.917 121.725 220.652 118.761 220.633 117.879C220.599 116.34 215.225 115.911 210.834 116.085L210.868 116.15C211.6 117.599 211.804 119.258 211.445 120.841C211.086 122.425 210.187 123.833 208.901 124.825L206.712 126.524Z" fill="#262626"/>
<path d="M164.832 231.18C164.832 232.878 165.728 238.556 164.286 238.962C163.421 239.205 162.4 234.972 162.4 234.972" fill="#E98862"/>
<path d="M158.024 230.288C158.024 230.288 153.314 241.752 158.686 248.337C158.823 248.505 159.007 248.627 159.214 248.688C159.422 248.749 159.643 248.747 159.848 248.681C160.054 248.614 160.235 248.488 160.368 248.317C160.501 248.146 160.579 247.94 160.593 247.724C160.854 243.284 161.749 234.163 164.677 235.228V228.065" fill="#E98862"/>
<path d="M264.232 169.21C264.232 169.21 270.811 163.985 271.276 162.108C271.741 160.232 267.108 156.54 267.108 156.54C267.108 156.54 273.269 150.328 272.04 149.431C270.59 148.368 263.442 157.4 263.442 157.4C263.442 157.4 264.452 154.151 263.194 153.937C262.677 153.85 262.267 154.357 261.458 156.657C260.536 159.279 258.692 163.22 258.692 163.22L264.232 169.21Z" fill="#E98862"/>
<path d="M257.305 162.262L237.848 184.154L222.63 156.911C221.189 152.607 217.909 149.724 211.218 149.437C208.929 149.339 197.763 149.323 189.588 149.323C184.096 149.323 179.587 151.008 176.983 153.612C175.671 154.905 174.69 156.494 174.122 158.245L174.042 158.216L160.96 193.79C160.814 194.189 160.708 194.602 160.645 195.023L155.365 230.595L167.659 232.419L172.845 197.478L178.129 183.112C178.679 185.32 178.979 187.583 179.025 189.858C179.025 201.827 173.61 207.195 174.009 213.34C174.636 222.998 221.56 220.716 223.951 215.23C226.413 209.573 221.417 206.087 221.635 187.582C221.659 185.568 221.814 183.462 222.029 181.317L231.262 197.845C231.745 198.711 232.429 199.448 233.256 199.996C234.082 200.544 235.028 200.885 236.013 200.993C236.999 201.1 237.996 200.97 238.921 200.613C239.846 200.257 240.672 199.684 241.331 198.943L266.913 169.021L257.305 162.262Z" fill="#367CFF"/>
<path d="M552.43 296.747L534.483 384.282C534.368 384.739 534.104 385.144 533.732 385.434C533.36 385.724 532.902 385.881 532.431 385.881C532.11 385.881 531.792 385.808 531.503 385.667C531.214 385.526 530.961 385.321 530.763 385.067C530.565 384.814 530.428 384.518 530.361 384.204C530.295 383.889 530.301 383.563 530.379 383.251L548.584 294.706L552.43 296.747Z" fill="#C1D8ED"/>
<path d="M594.597 296.607L612.544 384.141C612.659 384.598 612.924 385.003 613.295 385.293C613.667 385.583 614.125 385.74 614.596 385.74C614.918 385.741 615.235 385.667 615.525 385.526C615.814 385.385 616.067 385.18 616.265 384.927C616.462 384.673 616.6 384.378 616.666 384.063C616.733 383.748 616.727 383.423 616.648 383.111L598.445 294.565L594.597 296.607Z" fill="#C1D8ED"/>
<path d="M613.461 288.186H533.567C531.547 288.186 529.909 289.823 529.909 291.843V299.895C529.909 301.915 531.547 303.553 533.567 303.553H613.461C615.481 303.553 617.118 301.915 617.118 299.895V291.843C617.118 289.823 615.481 288.186 613.461 288.186Z" fill="#DEE8F5"/>
<path d="M590.752 247.7C588.363 246.918 585.911 247.795 583.567 249.581C586.655 241.779 587.931 234.734 582.65 234.417C578.954 234.195 576.123 237.03 573.973 241.06C573.216 233.973 571.265 228.688 566.894 230.44C562.095 232.364 561.365 238.958 562.093 245.856C559.978 242.332 557.704 240.368 555.635 242.436C549.467 248.604 564.608 265.988 564.608 265.988H568.369L570.515 268.318C570.081 269.235 569.843 269.782 569.843 269.782L572.569 275.329C572.569 275.329 600.664 250.945 590.752 247.7Z" fill="#6FBC0C"/>
<path d="M584.01 287.748H562.728L559.166 262.905H587.572L584.01 287.748Z" fill="#C1D8ED"/>
</svg>
