<svg width="28" height="28" viewBox="0 0 28 28" fill="none" xmlns="http://www.w3.org/2000/svg">
<path d="M9.54303 4.29303C9.73056 4.10556 9.98487 4.00024 10.25 4.00024C10.5152 4.00024 10.7695 4.10556 10.957 4.29303L19.707 13.043C19.8945 13.2306 19.9998 13.4849 19.9998 13.75C19.9998 14.0152 19.8945 14.2695 19.707 14.457L10.957 23.207C10.7684 23.3892 10.5158 23.49 10.2536 23.4877C9.99143 23.4854 9.74062 23.3803 9.55521 23.1948C9.3698 23.0094 9.26464 22.7586 9.26236 22.4964C9.26008 22.2342 9.36087 21.9816 9.54303 21.793L17.586 13.75L9.54303 5.70703C9.35556 5.5195 9.25024 5.26519 9.25024 5.00003C9.25024 4.73487 9.35556 4.48056 9.54303 4.29303Z" fill="#292D33"/>
</svg>
